<svg width="26" height="26" viewBox="0 0 26 26" fill="none" xmlns="http://www.w3.org/2000/svg">
<path id="Vector" d="M3.09425 0C1.39271 0 0 1.39271 0 3.09425V22.8975C0 24.599 1.39271 25.9917 3.09425 25.9917H13.5108C13.5776 26.0028 13.6458 26.0028 13.7126 25.9917H17.2239C17.2907 26.0028 17.3589 26.0028 17.4257 25.9917H22.8975C24.599 25.9917 25.9917 24.599 25.9917 22.8975V3.09425C25.9917 1.39271 24.599 0 22.8975 0H3.09425ZM3.09425 1.2377H22.8975C23.93 1.2377 24.754 2.06171 24.754 3.09425V22.8975C24.754 23.93 23.93 24.754 22.8975 24.754H17.9467V16.0901H20.3109L21.1775 11.7582H17.9467V10.5205C17.9467 10.1755 17.9795 10.1485 18.0953 10.0732C18.2112 9.998 18.5691 9.90161 19.1844 9.90161H21.0409V6.41695L20.688 6.24894C20.688 6.24894 19.2665 5.56965 17.3278 5.56965C15.9354 5.56965 14.7915 6.12442 14.0595 7.03942C13.3275 7.95442 12.9959 9.17961 12.9959 10.5205V11.7582H11.1393V16.0901H12.9959V24.754H3.09425C2.06171 24.754 1.2377 23.93 1.2377 22.8975V3.09425C1.2377 2.06171 2.06171 1.2377 3.09425 1.2377ZM17.3278 6.80735C18.6144 6.80735 19.4241 7.09107 19.8032 7.24127V8.66391H19.1844C18.4722 8.66391 17.9015 8.72282 17.4209 9.03497C16.9403 9.34713 16.709 9.93966 16.709 10.5205V12.9959H19.6666L19.2956 14.8524H16.709V24.754H14.2336V14.8524H12.377V12.9959H14.2336V10.5205C14.2336 9.3859 14.5208 8.44511 15.0265 7.81299C15.5322 7.18086 16.2448 6.80735 17.3278 6.80735Z" fill="#F5F5F5"/>
</svg>
