<svg width="26" height="26" viewBox="0 0 26 26" fill="none" xmlns="http://www.w3.org/2000/svg">
<path id="Vector" d="M7.68182 0C3.44647 0 0 3.44647 0 7.68182V18.3182C0 22.5535 3.44647 26 7.68182 26H18.3182C22.5535 26 26 22.5535 26 18.3182V7.68182C26 3.44647 22.5535 0 18.3182 0H7.68182ZM7.68182 1.18182H18.3182C21.9147 1.18182 24.8182 4.08526 24.8182 7.68182V18.3182C24.8182 21.9147 21.9147 24.8182 18.3182 24.8182H7.68182C4.08526 24.8182 1.18182 21.9147 1.18182 18.3182V7.68182C1.18182 4.08526 4.08526 1.18182 7.68182 1.18182ZM20.0909 4.72727C19.7775 4.72727 19.4769 4.85179 19.2552 5.07342C19.0336 5.29505 18.9091 5.59565 18.9091 5.90909C18.9091 6.22253 19.0336 6.52313 19.2552 6.74476C19.4769 6.9664 19.7775 7.09091 20.0909 7.09091C20.4043 7.09091 20.7049 6.9664 20.9266 6.74476C21.1482 6.52313 21.2727 6.22253 21.2727 5.90909C21.2727 5.59565 21.1482 5.29505 20.9266 5.07342C20.7049 4.85179 20.4043 4.72727 20.0909 4.72727ZM13 6.5C9.41715 6.5 6.5 9.41715 6.5 13C6.5 16.5829 9.41715 19.5 13 19.5C16.5829 19.5 19.5 16.5829 19.5 13C19.5 9.41715 16.5829 6.5 13 6.5ZM13 7.68182C15.9441 7.68182 18.3182 10.0559 18.3182 13C18.3182 15.9441 15.9441 18.3182 13 18.3182C10.0559 18.3182 7.68182 15.9441 7.68182 13C7.68182 10.0559 10.0559 7.68182 13 7.68182Z" fill="#F5F5F5"/>
</svg>
