<svg width="26" height="26" viewBox="0 0 26 26" fill="none" xmlns="http://www.w3.org/2000/svg">
<path id="Vector" d="M13 0C5.82713 0 0 5.82713 0 13C0 15.3056 0.632302 17.4572 1.68682 19.3355L0.0209749 25.2824C-0.00563857 25.3776 -0.00684106 25.4781 0.0174873 25.5739C0.0418157 25.6696 0.090825 25.7573 0.159629 25.8283C0.228432 25.8992 0.314626 25.9508 0.409616 25.9781C0.504606 26.0053 0.605074 26.0072 0.701002 25.9834L6.90183 24.4468C8.72392 25.4195 10.7915 26 13 26C20.1729 26 26 20.1729 26 13C26 5.82713 20.1729 0 13 0ZM13 1.13043C19.5619 1.13043 24.8696 6.43809 24.8696 13C24.8696 19.5619 19.5619 24.8696 13 24.8696C10.8963 24.8696 8.92598 24.3211 7.21315 23.3627C7.08787 23.2927 6.94066 23.273 6.80138 23.3075L1.37109 24.6532L2.82719 19.458C2.84803 19.3846 2.85378 19.3078 2.8441 19.2321C2.83443 19.1564 2.80952 19.0834 2.77089 19.0176C1.72995 17.2525 1.13043 15.1988 1.13043 13C1.13043 6.43809 6.43809 1.13043 13 1.13043ZM8.27624 6.21739C7.91391 6.21739 7.39646 6.35219 6.97138 6.81021C6.71606 7.08531 5.65217 8.1219 5.65217 9.94429C5.65217 11.8443 6.96992 13.4837 7.12925 13.6944H7.13035V13.6955C7.11524 13.6756 7.33258 13.9904 7.62271 14.3678C7.91283 14.7452 8.31853 15.2409 8.82821 15.7775C9.84756 16.8508 11.2808 18.0912 13.0596 18.8498C13.8788 19.1986 14.5251 19.4092 15.0147 19.5629C15.9221 19.8478 16.7486 19.8045 17.3694 19.7131C17.8341 19.6446 18.3452 19.4215 18.8509 19.1015C19.3566 18.7815 19.8522 18.3835 20.0707 17.779C20.2273 17.3455 20.3069 16.945 20.3357 16.6154C20.3501 16.4506 20.3519 16.3052 20.3412 16.1705C20.3305 16.0359 20.3419 15.9327 20.2165 15.7267C19.9533 15.2947 19.6553 15.2834 19.3443 15.1295C19.1716 15.044 18.6797 14.8038 18.1863 14.5687C17.6935 14.3339 17.2668 14.1259 17.004 14.0322C16.838 13.9724 16.6352 13.8865 16.3427 13.9196C16.0502 13.9527 15.7613 14.1637 15.5932 14.413C15.4337 14.6493 14.792 15.4069 14.5963 15.6296C14.5937 15.628 14.6107 15.6358 14.5334 15.5976C14.2914 15.4778 13.9954 15.376 13.5575 15.145C13.1195 14.9139 12.5717 14.5728 11.9722 14.0443V14.0432C11.08 13.2577 10.455 12.2715 10.2578 11.9402C10.2711 11.9244 10.2562 11.9436 10.2843 11.9159L10.2854 11.9148C10.4869 11.7163 10.6655 11.4793 10.8164 11.3055C11.0304 11.059 11.1248 10.8417 11.2271 10.6387C11.4309 10.2341 11.3174 9.78885 11.1995 9.5546V9.5535C11.2076 9.5697 11.1357 9.41096 11.0582 9.22784C10.9804 9.04419 10.8814 8.80611 10.7756 8.55222C10.5639 8.04446 10.3277 7.47495 10.1872 7.14139V7.14028C10.0216 6.74739 9.7977 6.46434 9.50492 6.32778C9.21215 6.19123 8.95348 6.23005 8.94302 6.22953H8.94192C8.73299 6.2199 8.50372 6.21739 8.27624 6.21739ZM8.27624 7.34783C8.49415 7.34783 8.70899 7.35048 8.88893 7.35887C9.07403 7.36809 9.06252 7.36885 9.02692 7.35224C8.99075 7.33537 9.03982 7.3299 9.14504 7.57965C9.28262 7.90627 9.52005 8.47784 9.73234 8.98718C9.83848 9.24185 9.93782 9.48085 10.0172 9.66831C10.0965 9.85576 10.1395 9.96043 10.1894 10.0602V10.0613L10.1905 10.0624C10.2394 10.1589 10.2351 10.0971 10.2181 10.1309C10.0988 10.3676 10.0826 10.4257 9.96196 10.5647C9.77825 10.7763 9.59086 11.0124 9.49168 11.1101C9.4049 11.1953 9.24832 11.3281 9.15056 11.5881C9.05265 11.8484 9.09835 12.2056 9.25543 12.4723C9.46458 12.8274 10.1538 13.9492 11.2249 14.8922C11.8994 15.4868 12.5278 15.8803 13.0298 16.1451C13.5318 16.4099 13.9407 16.5646 14.0322 16.6099C14.2494 16.7174 14.4869 16.8009 14.763 16.7677C15.0391 16.7346 15.2771 16.5671 15.4287 16.3957L15.4298 16.3946C15.6314 16.166 16.2307 15.4817 16.5183 15.06C16.5304 15.0642 16.5265 15.0609 16.622 15.0953V15.0964H16.6231C16.6668 15.1119 17.2133 15.3565 17.7006 15.5887C18.1879 15.8209 18.6824 16.0623 18.8432 16.1418C19.0751 16.2566 19.1847 16.3313 19.213 16.3317C19.2149 16.3814 19.2168 16.4353 19.2097 16.5172C19.1898 16.7442 19.1292 17.0584 19.0076 17.3948C18.9481 17.5595 18.6381 17.8991 18.247 18.1466C17.856 18.394 17.3801 18.5688 17.2038 18.5948C16.6739 18.6729 16.0446 18.7014 15.3536 18.4844C14.8745 18.334 14.277 18.1393 13.5034 17.8099C11.9345 17.1408 10.601 16.0022 9.64844 14.9992C9.17216 14.4978 8.79058 14.031 8.51911 13.6778C8.24814 13.3253 8.12982 13.1419 8.03117 13.0121L8.03006 13.011C7.85494 12.7795 6.78261 11.2879 6.78261 9.94429C6.78261 8.52234 7.44306 7.96472 7.80044 7.57965C7.98806 7.3775 8.19317 7.34783 8.27624 7.34783Z" fill="#F5F5F5"/>
</svg>
