<svg width="260" height="225" viewBox="0 0 260 225" fill="none" xmlns="http://www.w3.org/2000/svg">
<path d="M259.435 105.572C258.233 110.481 254.899 110.353 251.691 110.353C229.741 110.353 207.789 110.168 185.842 110.414C179.551 110.485 177.204 107.979 176.615 101.946C174.159 76.7822 174.346 76.4495 199.678 76.4503C216.141 76.4508 232.614 76.8442 249.061 76.3417C257.58 76.0814 260.511 79.4017 259.857 87.4933C259.394 93.2286 259.646 99.0214 259.435 105.572Z" fill="#FAFAFA"/>
<path d="M135.128 197.309C135.926 191.546 139.586 191.112 143.566 191.116C165.484 191.139 187.402 191.253 209.318 191.095C215.622 191.05 218.084 193.697 218.059 199.879C217.942 229.305 220.964 224.135 195.121 224.48C178.685 224.699 162.228 224.087 145.813 224.704C137.156 225.029 134.43 221.573 134.946 213.627C135.281 208.464 135.029 203.263 135.128 197.309Z" fill="#FAFAFA"/>
<path d="M195.48 152.947C220.66 153.284 217.911 149.846 217.933 174.748C217.942 185.928 217.297 186.425 206.11 186.448C185.575 186.489 165.036 186.252 144.507 186.601C137.675 186.717 135.103 183.964 135.027 177.548C134.677 148.056 132.694 153.436 157.313 152.991C169.745 152.767 182.185 152.949 195.48 152.947Z" fill="#FAFAFA"/>
<path d="M237.152 148.374C220.144 148.373 203.993 148.091 187.86 148.502C180.438 148.691 176.259 147.106 177.077 138.592C177.54 133.767 176.89 128.824 176.605 123.942C176.213 117.199 179.461 114.852 186.004 114.912C207.334 115.108 228.67 115.111 250 114.839C256.953 114.751 260.384 117.2 259.737 124.359C259.686 124.93 259.745 125.51 259.74 126.086C259.504 153.063 261.959 147.812 237.152 148.374Z" fill="#FAFAFA"/>
<path d="M96.8997 76.4837C118.545 76.4776 139.355 76.6752 160.158 76.3731C167.236 76.2703 169.731 78.7639 169.867 85.9041C170.334 110.35 170.56 110.346 146.634 110.332C129.873 110.322 113.107 110.09 96.3518 110.414C89.555 110.545 86.8629 108.04 87.29 101.324C87.6189 96.151 87.6011 90.9175 87.2269 85.7478C86.7498 79.1549 89.1793 75.832 96.8997 76.4837Z" fill="#FAFAFA"/>
<path d="M46.5367 155.707C49.2542 152.833 52.2058 153.003 55.0772 152.998C76.1409 152.96 97.2065 153.106 118.267 152.849C125.177 152.764 128.168 155.111 128.086 162.347C127.756 191.827 130.677 185.99 104.607 186.443C87.8764 186.734 71.134 186.329 54.4023 186.586C48.0969 186.683 45.4239 184.382 45.7712 178.007C46.1624 170.826 46.0653 163.617 46.5367 155.707Z" fill="#FAFAFA"/>
<path d="M87.9788 145.555C87.551 137.592 87.5939 130.388 87.2715 123.2C86.9996 117.141 89.9848 115.005 95.6273 115.014C117.553 115.049 139.48 115.03 161.406 114.896C167.219 114.86 169.455 117.354 169.758 123.191C171.064 148.381 171.199 148.37 146.554 148.364C130.398 148.36 114.241 148.427 98.0851 148.332C94.7441 148.312 91.0698 149.315 87.9788 145.555Z" fill="#FAFAFA"/>
<path d="M49.7509 148.381C35.632 148.383 22.3757 148.172 9.13075 148.469C3.01635 148.606 0.0137524 146.818 0.36219 140.203C0.678985 134.188 0.326931 128.125 0.0208881 122.095C-0.238908 116.977 1.89911 114.716 7.06922 114.757C28.6737 114.929 50.2792 114.997 71.8844 115.036C77.3584 115.046 79.5503 117.678 79.5175 123.051C79.326 154.376 83.0282 147.581 55.8033 148.36C54.0761 148.409 52.3465 148.373 49.7509 148.381Z" fill="#FAFAFA"/>
<path d="M37.3998 173.499C36.7724 187.249 35.9095 188.057 23.3403 187.461C2.88322 186.49 2.88322 186.49 2.90964 166.15C2.9267 153.011 3.00537 152.935 16.5719 152.901C16.8597 152.901 17.1475 152.898 17.4352 152.901C39.399 153.144 37.2291 150.311 37.3998 173.499Z" fill="#FAFAFA"/>
<path d="M225.489 30.6712C225.197 22.7211 225.135 15.5221 224.972 8.32525C224.852 2.99215 227.205 0.307571 232.709 0.364803C264.241 0.692587 257.737 -3.45764 258.727 24.5212C259.004 32.3381 256.367 35.7885 248.375 35.1636C243.5 34.7825 238.571 35.1471 233.669 35.0592C230.523 35.0029 227.148 35.2405 225.489 30.6712Z" fill="#FAFAFA"/>
<path d="M234.283 187.542C227.753 187.843 224.888 185.192 225.066 179.389C225.084 178.816 225.026 178.242 225.031 177.668C225.315 149.126 220.798 153.231 251.325 152.96C256.287 152.916 258.872 155.073 258.559 160.221C258.489 161.364 258.593 162.516 258.574 163.664C258.112 191.012 262.532 187.38 234.283 187.542Z" fill="#FAFAFA"/>
<path d="M258.269 68.9459C256.395 73.3208 253.131 73.0064 249.958 72.8776C245.944 72.7148 241.931 72.3573 237.918 72.3654C224.985 72.3915 224.981 72.4414 224.951 59.0672C224.898 35.403 223.777 38.909 245.202 38.6634C258.582 38.51 258.605 38.6167 258.601 51.8368C258.6 57.286 258.484 62.7352 258.269 68.9459Z" fill="#FAFAFA"/>
<path d="M258.489 219.722C258.208 223.145 256.858 224.852 254.102 224.862C246.044 224.89 237.985 224.857 229.928 224.718C225.696 224.645 224.831 221.668 224.827 218.187C224.818 211.575 224.914 204.961 224.828 198.35C224.761 193.214 227.425 191.065 232.281 191.04C232.569 191.038 232.856 191.007 233.144 191.011C264.402 191.392 257.825 186.248 258.489 219.722Z" fill="#FAFAFA"/>
<path d="M44.7177 90.6095C44.9172 76.9111 44.9173 76.8801 57.812 76.9175C83.0422 76.9905 77.7856 75.5588 78.1876 96.9214C78.4399 110.328 78.1913 110.333 65.1484 110.337C64.8597 110.337 64.5709 110.343 64.2824 110.336C42.9583 109.847 46.5807 113.815 44.7177 90.6095Z" fill="#FAFAFA"/>
</svg>
